Coordinates
version=1
nRows=16
nColumns=36
inDegrees=yes

Units are S.I. units (second, meters, Newtons, ...)
If the header above contains a line with 'inDegrees', this indicates whether rotational values are in degrees (yes) or radians (no).

endheader
time	pelvis_tilt	pelvis_list	pelvis_rotation	pelvis_tx	pelvis_ty	pelvis_tz	hip_flexion_r	hip_adduction_r	hip_rotation_r	knee_angle_r	knee_angle_r_beta	ankle_angle_r	subtalar_angle_r	mtp_angle_r	hip_flexion_l	hip_adduction_l	hip_rotation_l	knee_angle_l	knee_angle_l_beta	ankle_angle_l	subtalar_angle_l	mtp_angle_l	lumbar_extension	lumbar_bending	lumbar_rotation	arm_flex_r	arm_add_r	arm_rot_r	elbow_flex_r	pro_sup_r	arm_flex_l	arm_add_l	arm_rot_l	elbow_flex_l	pro_sup_l
      1.72500000	      0.68078409	      1.73182863	      2.91222113	     -0.96225534	      1.25514710	     -0.04919169	     -7.18798659	     -0.90967163	     -4.49496189	      0.47225184	      0.00824235	      4.46153740	    -11.38344255	     -7.49999987	     -6.74929306	     -1.06636866	     -1.79212737	      1.37387998	      0.02397873	      7.70149035	      6.52883034	     -7.49999987	     -8.08674304	      0.07086040	      1.61107244	     20.91872749	     -8.83573929	     57.47553671	     26.78411105	     68.76857211	     24.17316258	     -7.27208326	     71.15581173	     21.93741282	     53.56120746
      1.72916670	      0.62624601	      1.74368287	      2.89253434	     -0.96310113	      1.25536105	     -0.05011684	     -7.15178251	     -0.92672007	     -4.32971619	      0.47189657	      0.00823615	      4.31848842	    -11.73153590	     -7.49999987	     -6.75363238	     -1.04062797	     -1.58490374	      1.30715723	      0.02281420	      7.59523667	      6.15996416	     -7.49999987	     -7.99025359	      0.04890143	      1.65363753	     20.88178606	     -8.89996546	     57.68546311	     26.81964979	     68.83204368	     24.12150927	     -7.32777881	     71.20964652	     22.05230845	     53.60587834
      1.73333330	      0.66398474	      1.73877011	      2.86997291	     -0.96268589	      1.25305490	     -0.04932745	     -7.23523012	     -0.91620854	     -4.58906054	      0.46912393	      0.00818776	      4.64268943	    -11.13855155	     -7.49999987	     -6.83876717	     -1.05930675	     -1.76368271	      1.29807907	      0.02265575	      7.78086285	      6.53966390	     -7.49999987	     -7.97872859	      0.03677522	      1.67221562	     20.85705849	     -8.87814872	     57.60372719	     26.85831020	     68.50685025	     24.01615034	     -7.44367187	     70.79549022	     22.25141614	     53.84483863
      1.73750000	      0.52373178	      1.72587642	      2.84174997	     -0.96262348	      1.25255725	     -0.04997376	     -7.10351980	     -0.89850709	     -4.06103645	      0.46243807	      0.00807107	      4.24244221	    -12.12771937	     -7.49999987	     -6.72079569	     -1.06038570	     -1.46730587	      1.25223135	      0.02185556	      7.70187759	      6.07637637	     -7.49999987	     -7.74709776	      0.02193510	      1.70279664	     20.91840652	     -8.87601518	     58.31265553	     26.71647976	     69.07453107	     24.06150771	     -7.41579889	     71.41786790	     21.99723421	     53.83175300
      1.74166670	      0.53910128	      1.71370246	      2.83878244	     -0.96328444	      1.25269126	     -0.05023252	     -7.13242273	     -0.88992378	     -4.28258808	      0.46734287	      0.00815667	      4.57985739	    -11.59500312	     -7.49999987	     -6.75262567	     -1.07157153	     -1.62145154	      1.24752384	      0.02177340	      7.90214139	      6.51360261	     -7.49999987	     -7.73890671	      0.05001549	      1.69062783	     20.96216635	     -8.86552594	     58.14819135	     26.72145444	     68.85679611	     24.04485661	     -7.40633487	     71.26236240	     22.01055377	     53.93503824
      1.74583330	      0.50942766	      1.70766799	      2.83199791	     -0.96360558	      1.25339192	     -0.05065155	     -7.10160724	     -0.88668274	     -3.94825834	      0.46091015	      0.00804440	      4.37605592	    -12.14353827	     -7.49999987	     -6.72687600	     -1.05925501	     -1.34506401	      1.21986215	      0.02129061	      7.80447324	      6.06350241	     -7.49999987	     -7.68946658	      0.04901013	      1.78345281	     21.00950410	     -8.96264716	     58.43355516	     26.80229945	     69.24467139	     24.09831709	     -7.42551692	     71.58770280	     22.13272946	     53.78494777
      1.75000000	      0.47968387	      1.69760151	      2.82531279	     -0.96473544	      1.25253614	     -0.05006310	     -7.04073644	     -0.88495746	     -3.96641194	      0.46215988	      0.00806621	      4.42914517	    -12.14247277	     -7.49999987	     -6.67584661	     -1.06602021	     -1.34711714	      1.23050052	      0.02147629	      7.87161424	      5.98734841	     -7.49999987	     -7.66468632	      0.08298604	      1.80752421	     21.09208829	     -8.98974637	     58.37686756	     26.81016228	     69.53918378	     24.13730027	     -7.43003830	     71.62984222	     22.20032337	     53.55929720
      1.75416670	      0.46864542	      1.69380662	      2.83900143	     -0.96398017	      1.25392537	     -0.04979624	     -7.01891929	     -0.86355759	     -3.96716420	      0.46244083	      0.00807112	      4.44711980	    -12.14801931	     -7.49999987	     -6.67067174	     -1.08998237	     -1.35599361	      1.22436684	      0.02136923	      7.86446710	      5.98388498	     -7.49999987	     -7.64169981	      0.07634824	      1.83055780	     21.12499165	     -8.97776046	     58.37419924	     26.81831445	     69.54825401	     24.15779336	     -7.44424255	     71.63531276	     22.19543685	     53.55166659
      1.75833330	      0.43473274	      1.67429441	      2.86100325	     -0.96387325	      1.25390978	     -0.04986062	     -6.98310577	     -0.83969744	     -4.21913208	      0.46207969	      0.00806481	      4.77523932	    -11.58004965	     -7.49999987	     -6.62522075	     -1.11881895	     -1.45159455	      1.24041660	      0.02164935	      7.90333132	      6.06948116	     -7.49999987	     -7.56931831	      0.11621036	      1.83439059	     21.06203481	     -8.96583406	     58.14258519	     26.83596015	     69.23863019	     24.11156336	     -7.44179424	     71.36770219	     22.25103011	     53.67121490
      1.76250000	      0.28348413	      1.66700352	      2.81669592	     -0.96340405	      1.25184440	     -0.04972455	     -6.81494068	     -0.83540468	     -3.81392789	      0.45829245	      0.00799871	      4.47207299	    -12.35102136	     -7.49999987	     -6.45211041	     -1.12690650	     -1.45441108	      1.25645567	      0.02192929	      7.83324794	      5.84047886	     -7.49999987	     -7.31500906	      0.12399963	      1.96290214	     21.00374802	     -9.01934799	     58.41346995	     26.82274191	     69.44682561	     24.09707524	     -7.38452013	     71.53057952	     22.13208563	     53.64525816
      1.76666670	      0.28864571	      1.68480641	      2.84836599	     -0.96416929	      1.24956150	     -0.05041820	     -6.83281768	     -0.85587978	     -3.83717828	      0.45887404	      0.00800886	      4.45553183	    -12.45204452	     -7.49999987	     -6.41707019	     -1.09341750	     -1.43064161	      1.29195890	      0.02254894	      7.83572853	      5.57730569	     -7.49999987	     -7.31375059	      0.12255660	      2.01394246	     20.98205368	     -9.12615976	     58.43585527	     27.01754718	     69.61685282	     24.17677841	     -7.45065003	     71.73389221	     22.35543403	     53.55613350
      1.77083330	      0.32831075	      1.70972312	      2.86594084	     -0.96308148	      1.25216794	     -0.05102869	     -6.90620120	     -0.89725708	     -4.10477275	      0.46776505	      0.00816404	      4.63771073	    -12.05193798	     -7.49999987	     -6.44624272	     -1.05675621	     -1.46850396	      1.30741244	      0.02281865	      7.75705779	      5.42928093	     -7.49999987	     -7.34742060	      0.14765371	      2.01852924	     20.86515935	     -9.12632792	     57.98256031	     27.03769862	     69.02130268	     24.03033980	     -7.48132573	     71.14013761	     22.56169145	     53.77636097
      1.77500000	      0.19902726	      1.69190440	      2.85047668	     -0.96284252	      1.25313851	     -0.05131393	     -6.78030208	     -0.90455701	     -3.82873387	      0.47167335	      0.00823225	      4.29911444	    -12.62367762	     -7.49999987	     -6.29407132	     -1.05016552	     -1.50193847	      1.33122719	      0.02323430	      7.75474111	      5.51756825	     -7.49999987	     -7.13647227	      0.20632622	      2.04170967	     20.87417192	     -9.16144042	     58.61409244	     26.91478261	     69.29359414	     23.99362380	     -7.37488772	     71.57878791	     22.32567219	     53.89849307
      1.77916670	      0.17084964	      1.66639102	      2.85111189	     -0.96382923	      1.25140098	     -0.05160017	     -6.73362277	     -0.90205823	     -3.84197371	      0.48533630	      0.00847072	      4.32043273	    -12.67852699	     -7.49999987	     -6.23662520	     -1.03663619	     -1.52541896	      1.33885862	      0.02336749	      7.78422657	      5.52691230	     -7.49999987	     -7.06862631	      0.25876811	      2.05875254	     20.89884344	     -9.15945018	     58.78803094	     26.68629805	     69.97300151	     24.07278854	     -7.28722139	     72.29035158	     22.14110521	     53.42347081
      1.78333330	      0.15974529	      1.67076435	      2.87348797	     -0.96392937	      1.24894346	     -0.05195370	     -6.71697582	     -0.92881952	     -3.82278301	      0.49579793	      0.00865331	      4.31771237	    -12.74549520	     -7.49999987	     -6.19863298	     -1.00248233	     -1.41878166	      1.36368638	      0.02380082	      7.85056347	      5.50921495	     -7.49999987	     -7.04959260	      0.28137203	      2.08316069	     20.85341164	     -9.24909131	     58.57573123	     26.90180128	     69.69351596	     24.07764492	     -7.28833798	     72.00415455	     22.32287774	     53.37787659
      1.78750000	      0.13950998	      1.66900194	      2.89083200	     -0.96360455	      1.25102480	     -0.05088299	     -6.70098913	     -0.93221219	     -3.85945331	      0.50465028	      0.00880781	      4.36570230	    -12.70721365	     -7.49999987	     -6.15254392	     -1.00059218	     -1.36221097	      1.39733994	      0.02438818	      7.88563232	      5.50244917	     -7.49999987	     -7.02191720	      0.28785010	      2.08322566	     20.83894298	     -9.25075453	     58.50714510	     26.93962768	     69.78440005	     24.06950347	     -7.28983724	     72.02549915	     22.35132358	     53.27533964
